<svg width="48" height="48" viewBox="0 0 48 48" fill="none" xmlns="http://www.w3.org/2000/svg">
<path d="M24.002 4.00391C12.958 4.00391 4.004 13.0129 4.004 24.1246C4.004 34.1659 11.316 42.4887 20.878 44.0039V29.9421H15.798V24.1246H20.878V19.6916C20.878 14.6448 23.864 11.8618 28.43 11.8618C30.618 11.8618 32.91 12.2542 32.91 12.2542V17.2024H30.382C27.902 17.2024 27.126 18.7559 27.126 20.3476V24.1206H32.668L31.782 29.9381H27.126V43.9999C36.688 42.4927 44 34.1679 44 24.1246C44 13.0129 35.046 4.00391 24.002 4.00391V4.00391Z" fill="#545454"/>
</svg>
