<svg width="48" height="48" viewBox="0 0 48 48" fill="none" xmlns="http://www.w3.org/2000/svg">
<circle cx="24" cy="24" r="24" fill="#545454"/>
<path d="M13.9612 30.196C15.6972 30.196 17.2792 28.67 17.2792 26.024C17.2792 23.658 16.1732 22.104 14.2272 22.104C13.4012 22.104 12.5892 22.538 11.9172 23.112L11.9872 21.796V18.856H10.3632V30H11.6372L11.7772 29.202H11.8332C12.4772 29.832 13.2612 30.196 13.9612 30.196ZM13.6532 28.852C13.1772 28.852 12.5612 28.67 11.9872 28.152V24.386C12.6172 23.77 13.2052 23.448 13.7932 23.448C15.0812 23.448 15.6132 24.442 15.6132 26.052C15.6132 27.858 14.7592 28.852 13.6532 28.852ZM20.7779 30.196C21.1839 30.196 21.4359 30.126 21.6459 30.056L21.4359 28.838C21.2959 28.866 21.2399 28.866 21.1699 28.866C20.9739 28.866 20.7919 28.712 20.7919 28.278V18.856H19.1679V28.194C19.1679 29.44 19.6019 30.196 20.7779 30.196ZM26.4318 30.196C28.3358 30.196 30.0578 28.712 30.0578 26.164C30.0578 23.588 28.3358 22.104 26.4318 22.104C24.5138 22.104 22.8058 23.588 22.8058 26.164C22.8058 28.712 24.5138 30.196 26.4318 30.196ZM26.4318 28.866C25.2138 28.866 24.4718 27.788 24.4718 26.164C24.4718 24.526 25.2138 23.448 26.4318 23.448C27.6358 23.448 28.4058 24.526 28.4058 26.164C28.4058 27.788 27.6358 28.866 26.4318 28.866ZM34.5971 33.458C37.0611 33.458 38.6291 32.254 38.6291 30.77C38.6291 29.454 37.6771 28.894 35.8571 28.894H34.4291C33.4631 28.894 33.1411 28.6 33.1411 28.152C33.1411 27.774 33.3231 27.55 33.5611 27.34C33.9111 27.494 34.3031 27.564 34.6391 27.564C36.2631 27.564 37.5371 26.612 37.5371 24.918C37.5371 24.33 37.3271 23.826 37.0331 23.518H38.4891V22.3H35.7731C35.4791 22.188 35.0871 22.104 34.6391 22.104C33.0571 22.104 31.6571 23.126 31.6571 24.876C31.6571 25.786 32.1611 26.528 32.6791 26.92V26.976C32.2451 27.284 31.8251 27.802 31.8251 28.404C31.8251 29.034 32.1191 29.44 32.5251 29.692V29.762C31.8111 30.182 31.4051 30.784 31.4051 31.442C31.4051 32.772 32.7491 33.458 34.5971 33.458ZM34.6391 26.528C33.8551 26.528 33.1971 25.898 33.1971 24.876C33.1971 23.84 33.8411 23.252 34.6391 23.252C35.4511 23.252 36.0951 23.84 36.0951 24.876C36.0951 25.898 35.4371 26.528 34.6391 26.528ZM34.8351 32.394C33.5611 32.394 32.7771 31.946 32.7771 31.204C32.7771 30.812 32.9731 30.42 33.4351 30.07C33.7571 30.154 34.0931 30.182 34.4571 30.182H35.6191C36.5571 30.182 37.0611 30.392 37.0611 31.036C37.0611 31.736 36.1791 32.394 34.8351 32.394Z" fill="white"/>
</svg>
